<svg width="24" height="13" viewBox="0 0 24 13" fill="none" xmlns="http://www.w3.org/2000/svg">
<path d="M12 10.7783L1.53364 0.269899C1.44929 0.183382 1.34915 0.114984 1.23902 0.0686608C1.12888 0.022338 1.01094 -0.000988877 0.892009 2.9637e-05C0.77308 0.00104911 0.655527 0.0263949 0.546153 0.0745993C0.43678 0.122804 0.337757 0.192909 0.254816 0.28086C0.171875 0.368811 0.106662 0.472859 0.0629511 0.586987C0.0192402 0.701114 -0.00210082 0.823053 0.000163131 0.945746C0.00242708 1.06844 0.0282511 1.18945 0.0761406 1.30178C0.12403 1.41411 0.193034 1.51552 0.27916 1.60015L11.3728 12.7371C11.5407 12.9057 11.7657 13 12 13C12.2343 13 12.4593 12.9057 12.6272 12.7371L23.7208 1.60015C23.807 1.51552 23.876 1.41411 23.9239 1.30178C23.9718 1.18945 23.9976 1.06844 23.9998 0.945748C24.0021 0.823055 23.9808 0.701116 23.9371 0.586989C23.8933 0.472861 23.8281 0.368813 23.7452 0.280862C23.6622 0.192911 23.5632 0.122806 23.4538 0.0746012C23.3445 0.0263968 23.2269 0.00105094 23.108 3.14565e-05C22.9891 -0.000987077 22.8711 0.0223398 22.761 0.0686626C22.6508 0.114985 22.5507 0.183384 22.4664 0.269901L12 10.7783Z" fill="black"/>
</svg>
