<svg width="43" height="43" viewBox="0 0 43 43" fill="none" xmlns="http://www.w3.org/2000/svg">
<path fill-rule="evenodd" clip-rule="evenodd" d="M9.55556 0C7.02126 0 4.59077 1.00674 2.79876 2.79876C1.00674 4.59077 0 7.02126 0 9.55556V33.4444C0 35.9787 1.00674 38.4092 2.79876 40.2012C4.59077 41.9933 7.02126 43 9.55556 43H33.4444C35.9787 43 38.4092 41.9933 40.2012 40.2012C41.9933 38.4092 43 35.9787 43 33.4444V9.55556C43 7.02126 41.9933 4.59077 40.2012 2.79876C38.4092 1.00674 35.9787 0 33.4444 0H9.55556ZM34.2376 16.8536C34.5892 16.3265 34.717 15.6813 34.5929 15.0599C34.4688 14.4385 34.103 13.8919 33.5758 13.5402C33.0487 13.1886 32.4035 13.0608 31.7821 13.1849C31.1607 13.309 30.6141 13.6748 30.2624 14.2019C29.4168 15.3247 28.5305 16.3997 27.4937 17.3553C26.2921 18.4637 25.0762 19.2951 23.8913 19.7872L23.8722 15.2483C23.8037 14.6672 23.5244 14.1314 23.0871 13.7426C22.6499 13.3538 22.0851 13.139 21.5 13.1389C20.2052 13.2129 19.1111 14.1685 19.1111 15.5278V25.9744C14.4576 24.6844 11.9444 20.1694 11.9444 15.5278C11.9444 14.8942 11.6928 14.2866 11.2448 13.8386C10.7968 13.3906 10.1891 13.1389 9.55556 13.1389C8.92198 13.1389 8.31436 13.3906 7.86636 13.8386C7.41835 14.2866 7.16667 14.8942 7.16667 15.5278C7.16667 24.2042 13.1628 31.0556 21.5 31.0556C22.1336 31.0556 22.7412 30.8039 23.1892 30.3559C23.6372 29.9079 23.8889 29.3002 23.8889 28.6667V24.9328C27.0709 25.1861 30.1573 27.434 31.3088 29.7345C31.4429 30.0249 31.6341 30.2855 31.8708 30.5006C32.1076 30.7158 32.3852 30.8812 32.6871 30.9871C32.989 31.0929 33.3091 31.137 33.6284 31.1168C33.9477 31.0966 34.2597 31.0125 34.5458 30.8694C34.832 30.7263 35.0865 30.5272 35.2942 30.2839C35.5019 30.0406 35.6587 29.7581 35.7552 29.453C35.8516 29.148 35.8858 28.8267 35.8558 28.5082C35.8257 28.1897 35.732 27.8804 35.5801 27.5988C34.4382 25.3127 32.3073 23.1746 29.6843 21.7795C30.0379 21.4896 30.3883 21.1855 30.7354 20.8669C32.0517 19.6668 33.2267 18.3203 34.2376 16.8536Z" fill="white"/>
</svg>
