<svg width="24" height="13" viewBox="0 0 24 13" fill="none" xmlns="http://www.w3.org/2000/svg">
<path d="M12 2.22175L22.4664 12.7301C22.5507 12.8166 22.6508 12.885 22.761 12.9313C22.8711 12.9777 22.9891 13.001 23.108 13C23.2269 12.999 23.3445 12.9736 23.4538 12.9254C23.5632 12.8772 23.6622 12.8071 23.7452 12.7191C23.8281 12.6312 23.8933 12.5271 23.937 12.413C23.9808 12.2989 24.0021 12.1769 23.9998 12.0543C23.9976 11.9316 23.9717 11.8105 23.9239 11.6982C23.876 11.5859 23.807 11.4845 23.7208 11.3999L12.6272 0.262881C12.4593 0.094314 12.2343 -1.07042e-06 12 -1.09173e-06C11.7657 -1.11305e-06 11.5407 0.0943139 11.3728 0.262881L0.279157 11.3999C0.193031 11.4845 0.124029 11.5859 0.0761392 11.6982C0.0282495 11.8105 0.0024259 11.9316 0.000161871 12.0543C-0.00210215 12.1769 0.0192373 12.2989 0.0629499 12.413C0.106661 12.5271 0.171871 12.6312 0.254814 12.7191C0.337755 12.8071 0.436777 12.8772 0.546152 12.9254C0.655525 12.9736 0.773079 12.9989 0.892008 13C1.01094 13.001 1.12888 12.9777 1.23902 12.9313C1.34915 12.885 1.44929 12.8166 1.53364 12.7301L12 2.22175Z" fill="white"/>
</svg>
